<svg version="1.1" id="Layer_1" xmlns="http://www.w3.org/2000/svg" xmlns:xlink="http://www.w3.org/1999/xlink" x="0px" y="0px"
	 width="100%" viewBox="0 0 1024 1024" enable-background="new 0 0 1024 1024" xml:space="preserve">
<path fill="#3C88F8" opacity="1.000000" stroke="none" 
	d="
M675.000000,1025.000000 
	C450.000000,1025.000000 225.500000,1025.000000 1.000000,1025.000000 
	C1.000000,683.666687 1.000000,342.333344 1.000000,1.000000 
	C342.333344,1.000000 683.666687,1.000000 1025.000000,1.000000 
	C1025.000000,342.333344 1025.000000,683.666687 1025.000000,1025.000000 
	C908.500000,1025.000000 792.000000,1025.000000 675.000000,1025.000000 
M556.092102,762.790588 
	C556.092102,762.790588 556.070374,762.683044 556.467651,763.270386 
	C558.794250,763.801025 561.120911,764.331726 564.066406,764.830750 
	C564.844604,765.087158 565.622742,765.343567 566.303101,766.120056 
	C569.122986,766.723572 571.939880,767.835327 574.763245,767.851929 
	C603.056396,768.018921 631.350647,767.999634 659.644592,768.044556 
	C733.366089,768.161560 807.087524,768.288696 880.809082,768.350342 
	C881.580444,768.350952 882.352478,767.523315 883.548035,766.640747 
	C882.671997,761.483704 881.795898,756.326660 880.921082,750.325928 
	C874.900085,717.591492 868.867798,684.859070 862.860718,652.122131 
	C852.589355,596.146240 842.333496,540.167542 832.071899,484.189941 
	C822.380127,431.320709 812.509216,378.483337 803.077026,325.567810 
	C798.603455,300.470734 786.505310,280.653931 764.110046,268.271973 
	C755.696289,263.620148 745.881165,261.503082 736.152161,257.686920 
	C734.525146,257.471649 732.898376,257.070251 731.271057,257.068085 
	C680.558167,257.001160 629.845154,256.962708 579.132202,256.989532 
	C577.601746,256.990326 576.071594,257.736053 574.521118,258.894684 
	C576.155518,267.893951 577.807190,276.890167 579.420654,285.893188 
	C582.235657,301.600861 585.027161,317.312744 587.497437,333.619446 
	C587.522766,338.702667 588.798828,339.904846 593.499878,339.407837 
	C595.311951,339.216278 597.141174,339.097748 598.962646,339.097015 
	C637.519165,339.081116 676.075623,339.082825 714.632141,339.091736 
	C722.021851,339.093475 723.059021,340.157104 724.039490,347.499542 
	C724.294922,349.412415 725.418030,351.209412 726.552490,353.708740 
	C736.405457,406.870422 746.300537,460.024353 756.099182,513.196045 
	C765.356079,563.428040 774.516724,613.677917 783.706238,663.922363 
	C785.072632,671.393616 786.364441,678.878540 787.758972,686.741821 
	C785.546570,686.851135 784.084473,686.986450 782.622437,686.986572 
	C718.659241,686.990845 654.695984,686.943604 590.733032,687.076599 
	C586.961060,687.084473 585.898438,685.609863 585.315979,682.382385 
	C579.525818,650.295227 573.700317,618.214233 567.768982,586.152954 
	C565.654907,574.725891 563.224670,563.357361 560.303772,551.437805 
	C559.333923,551.264954 558.364319,550.942566 557.394226,550.941162 
	C533.355896,550.907593 509.317505,550.891113 485.279266,550.944946 
	C483.863312,550.948120 482.448730,551.566162 480.574921,552.462708 
	C480.884460,555.091797 481.048492,557.747681 481.525452,560.346008 
	C488.358734,597.573120 495.028748,634.832092 502.193848,671.995483 
	C505.359070,688.412415 509.548859,704.631836 513.429749,721.652832 
	C514.277588,723.443420 515.028625,725.287842 515.988342,727.016296 
	C524.557922,742.449524 537.135315,753.553223 553.252991,761.717163 
	C554.234802,762.065979 555.216614,762.414795 556.092102,762.790588 
M452.593201,766.636047 
	C453.526459,765.975098 454.459717,765.314087 454.799774,765.073303 
	C454.130402,762.088989 453.677856,759.408752 452.914124,756.820312 
	C451.739899,752.840576 450.351868,748.923889 448.747406,744.252136 
	C445.521362,727.251831 442.046906,710.292603 439.221191,693.226013 
	C438.377747,688.131775 436.449768,686.877380 431.562866,686.899292 
	C390.919098,687.081970 350.273376,686.887573 309.630402,687.145081 
	C304.157990,687.179688 302.499176,685.164185 301.777039,680.249756 
	C300.277985,670.048523 298.335968,659.910095 296.470551,649.765259 
	C286.269562,594.288696 276.035492,538.818237 265.815002,483.345306 
	C259.153015,447.186554 252.457214,411.033997 245.859573,374.863525 
	C244.072098,365.064026 242.586273,355.209534 241.000443,344.503906 
	C240.620728,338.890228 244.473007,339.089050 248.312195,339.089813 
	C307.074188,339.101593 365.836304,339.043182 424.598053,339.161255 
	C430.029541,339.172150 435.458862,340.271118 441.180176,341.631134 
	C446.182587,368.457550 451.197266,395.281647 456.182953,422.111176 
	C459.306580,438.920319 462.386627,455.737549 465.491913,472.581909 
	C492.696167,472.581909 519.557861,472.581909 546.607117,472.581909 
	C546.474792,471.484802 546.431274,470.829651 546.313416,470.188171 
	C537.325745,421.255005 528.198853,372.346893 519.406677,323.378632 
	C516.031128,304.578217 507.378448,289.058472 493.064087,276.516022 
	C481.154724,266.080933 467.130890,260.553894 451.105713,257.654480 
	C449.139252,257.427185 447.172882,257.001892 445.206329,257.001007 
	C346.642426,256.956787 248.078537,256.943329 149.514664,256.977692 
	C147.587112,256.978363 145.659760,257.586884 143.371735,258.548218 
	C146.702805,277.379547 149.932281,296.229553 153.384277,315.038696 
	C163.144211,368.218811 172.979996,421.385071 182.818985,474.550659 
	C186.178238,492.702545 189.635757,510.836304 192.991364,529.863953 
	C193.132324,531.017090 193.213715,532.181152 193.422897,533.321777 
	C200.734299,573.190796 208.028229,613.063110 215.393265,652.922241 
	C218.530899,669.902893 221.820740,686.855530 225.012039,704.405640 
	C225.074814,704.590393 225.137589,704.775208 225.185089,705.808655 
	C227.164276,717.351807 232.083878,727.742493 239.393890,736.624084 
	C244.440109,742.755127 251.076782,747.577271 257.068634,753.267761 
	C257.068634,753.267761 257.093475,753.557556 257.172333,754.288086 
	C262.107025,757.475708 266.706970,761.479126 272.050018,763.671387 
	C281.517578,767.555969 291.677734,768.092224 301.940369,768.093994 
	C351.216797,768.102478 400.493164,768.417053 449.769775,768.544067 
	C450.494141,768.545898 451.221161,767.535461 451.980133,766.884460 
	C451.980133,766.884460 452.093933,766.915039 452.593201,766.636047 
z"/>
<path fill="#FDFEFE" opacity="1.000000" stroke="none" 
	d="
M560.938782,551.962097 
	C563.224670,563.357361 565.654907,574.725891 567.768982,586.152954 
	C573.700317,618.214233 579.525818,650.295227 585.315979,682.382385 
	C585.898438,685.609863 586.961060,687.084473 590.733032,687.076599 
	C654.695984,686.943604 718.659241,686.990845 782.622437,686.986572 
	C784.084473,686.986450 785.546570,686.851135 787.758972,686.741821 
	C786.364441,678.878540 785.072632,671.393616 783.706238,663.922363 
	C774.516724,613.677917 765.356079,563.428040 756.099182,513.196045 
	C746.300537,460.024353 736.405457,406.870422 726.384644,352.942993 
	C725.834167,349.712463 725.191711,347.255066 725.121216,344.781342 
	C724.956055,338.991211 722.054260,337.762878 716.569519,337.795776 
	C675.911438,338.039764 635.251038,337.876038 594.591919,338.008850 
	C590.694458,338.021606 588.279053,337.145233 587.828491,333.022858 
	C585.027161,317.312744 582.235657,301.600861 579.420654,285.893188 
	C577.807190,276.890167 576.155518,267.893951 574.944092,258.528259 
	C578.363281,258.128387 581.359619,258.063263 584.355835,258.066193 
	C635.138855,258.115906 685.921875,258.174103 736.704895,258.230408 
	C745.881165,261.503082 755.696289,263.620148 764.110046,268.271973 
	C786.505310,280.653931 798.603455,300.470734 803.077026,325.567810 
	C812.509216,378.483337 822.380127,431.320709 832.071899,484.189941 
	C842.333496,540.167542 852.589355,596.146240 862.860718,652.122131 
	C868.867798,684.859070 874.900085,717.591492 880.883057,751.201477 
	C880.887512,753.409180 880.929016,754.741333 880.972595,756.073425 
	C881.297729,766.006409 881.297913,766.021179 871.590698,766.021484 
	C783.285645,766.024292 694.980530,766.093567 606.675781,765.934143 
	C594.921753,765.912964 583.170715,764.707825 571.416443,764.085938 
	C568.624084,763.938232 565.824219,763.931335 562.714966,763.877319 
	C561.640198,763.592773 560.878357,763.290649 560.202393,762.733948 
	C559.743774,761.978271 559.265625,761.367004 558.644653,760.992981 
	C552.477966,757.279419 546.216553,753.716980 540.147827,749.851196 
	C538.335266,748.696533 537.328369,746.135864 535.461914,745.232178 
	C528.641174,741.929626 523.716431,737.218018 520.616760,730.115479 
	C519.104004,726.649292 515.778442,723.974121 513.273499,720.940918 
	C509.548859,704.631836 505.359070,688.412415 502.193848,671.995483 
	C495.028748,634.832092 488.358734,597.573120 481.525452,560.346008 
	C481.048492,557.747681 480.884460,555.091797 481.266998,552.241577 
	C508.285645,552.000977 534.612183,551.981567 560.938782,551.962097 
z"/>
<path fill="#FDFEFE" opacity="1.000000" stroke="none" 
	d="
M240.961990,345.380280 
	C242.586273,355.209534 244.072098,365.064026 245.859573,374.863525 
	C252.457214,411.033997 259.153015,447.186554 265.815002,483.345306 
	C276.035492,538.818237 286.269562,594.288696 296.470551,649.765259 
	C298.335968,659.910095 300.277985,670.048523 301.777039,680.249756 
	C302.499176,685.164185 304.157990,687.179688 309.630402,687.145081 
	C350.273376,686.887573 390.919098,687.081970 431.562866,686.899292 
	C436.449768,686.877380 438.377747,688.131775 439.221191,693.226013 
	C442.046906,710.292603 445.521362,727.251831 448.866150,745.045410 
	C450.021240,752.864197 451.057587,759.889587 452.093933,766.915039 
	C452.093933,766.915039 451.980133,766.884460 451.502808,766.893066 
	C400.442810,766.897766 349.860107,766.898438 299.277405,766.873901 
	C297.122192,766.872864 294.964478,766.671265 292.812347,766.505981 
	C279.708252,765.499939 268.099945,760.356323 257.093475,753.557556 
	C257.093475,753.557556 257.068634,753.267761 257.024994,752.738403 
	C255.565430,749.977295 254.354095,747.574402 252.672760,745.564758 
	C251.165314,743.762939 249.035172,742.498474 247.365021,740.813293 
	C243.252792,736.663879 237.357925,733.786926 237.120102,726.773804 
	C237.108368,726.427856 236.293106,726.173950 236.078247,725.759827 
	C234.328125,722.386353 232.462097,719.057861 230.965546,715.572144 
	C229.364029,711.841919 230.535812,706.659485 225.200363,704.960022 
	C225.137589,704.775208 225.074814,704.590393 225.065399,703.674988 
	C224.744385,694.142456 225.095337,685.229065 223.764420,676.574280 
	C222.714127,669.744324 219.340851,663.300537 217.532562,656.542542 
	C216.907089,654.204956 217.184570,651.073059 218.288834,648.947998 
	C220.195618,645.278564 220.498474,642.870972 216.252640,640.928589 
	C215.340424,640.511230 214.683914,638.720581 214.576263,637.503601 
	C214.167191,632.879028 214.512161,628.140625 213.667709,623.614075 
	C212.687149,618.357910 210.482056,613.340698 209.303345,608.108276 
	C207.935608,602.036804 210.853241,595.040955 205.308136,589.839600 
	C205.025024,589.574036 205.028564,588.865906 205.091721,588.389343 
	C205.793213,583.096924 204.506561,578.199707 203.218384,573.047485 
	C201.311966,565.422607 201.069397,557.390564 199.965500,549.553406 
	C199.050583,543.057922 197.914642,536.593628 196.777298,529.495789 
	C195.895065,529.373352 194.471725,529.175842 193.048370,528.978333 
	C189.635757,510.836304 186.178238,492.702545 182.818985,474.550659 
	C172.979996,421.385071 163.144211,368.218811 153.384277,315.038696 
	C149.932281,296.229553 146.702805,277.379547 144.043259,258.307587 
	C247.039215,258.095856 349.363647,258.124725 451.688080,258.153625 
	C467.130890,260.553894 481.154724,266.080933 493.064087,276.516022 
	C507.378448,289.058472 516.031128,304.578217 519.406677,323.378632 
	C528.198853,372.346893 537.325745,421.255005 546.313416,470.188171 
	C546.431274,470.829651 546.474792,471.484802 546.607117,472.581909 
	C519.557861,472.581909 492.696167,472.581909 465.491913,472.581909 
	C462.386627,455.737549 459.306580,438.920319 456.182953,422.111176 
	C451.197266,395.281647 446.182587,368.457550 441.077759,340.834839 
	C439.096802,339.343262 437.219269,338.043640 435.339478,338.040283 
	C371.843506,337.926483 308.347321,337.933685 244.851181,337.939819 
	C243.089722,337.940002 241.328308,338.121338 239.006714,338.248993 
	C239.765457,341.016327 240.363724,343.198303 240.961990,345.380280 
z"/>
<path fill="#E1F3F8" opacity="1.000000" stroke="none" 
	d="
M193.019867,529.421143 
	C194.471725,529.175842 195.895065,529.373352 196.777298,529.495789 
	C197.914642,536.593628 199.050583,543.057922 199.965500,549.553406 
	C201.069397,557.390564 201.311966,565.422607 203.218384,573.047485 
	C204.506561,578.199707 205.793213,583.096924 205.091721,588.389343 
	C205.028564,588.865906 205.025024,589.574036 205.308136,589.839600 
	C210.853241,595.040955 207.935608,602.036804 209.303345,608.108276 
	C210.482056,613.340698 212.687149,618.357910 213.667709,623.614075 
	C214.512161,628.140625 214.167191,632.879028 214.576263,637.503601 
	C214.683914,638.720581 215.340424,640.511230 216.252640,640.928589 
	C220.498474,642.870972 220.195618,645.278564 218.288834,648.947998 
	C217.184570,651.073059 216.907089,654.204956 217.532562,656.542542 
	C219.340851,663.300537 222.714127,669.744324 223.764420,676.574280 
	C225.095337,685.229065 224.744385,694.142456 225.080078,703.382568 
	C221.820740,686.855530 218.530899,669.902893 215.393265,652.922241 
	C208.028229,613.063110 200.734299,573.190796 193.422897,533.321777 
	C193.213715,532.181152 193.132324,531.017090 193.019867,529.421143 
z"/>
<path fill="#D6EEF9" opacity="1.000000" stroke="none" 
	d="
M563.027832,763.859680 
	C565.824219,763.931335 568.624084,763.938232 571.416443,764.085938 
	C583.170715,764.707825 594.921753,765.912964 606.675781,765.934143 
	C694.980530,766.093567 783.285645,766.024292 871.590698,766.021484 
	C881.297913,766.021179 881.297729,766.006409 880.972595,756.073425 
	C880.929016,754.741333 880.887512,753.409180 880.882446,751.623291 
	C881.795898,756.326660 882.671997,761.483704 882.854614,766.835449 
	C788.031616,767.031494 693.901978,767.080322 599.772522,766.970947 
	C588.648132,766.958008 577.524780,766.078003 566.400940,765.599976 
	C565.622742,765.343567 564.844604,765.087158 563.650146,764.594910 
	C563.165283,764.192627 563.096558,764.026123 563.027832,763.859680 
z"/>
<path fill="#5289C5" opacity="1.000000" stroke="none" 
	d="
M566.352051,765.859985 
	C577.524780,766.078003 588.648132,766.958008 599.772522,766.970947 
	C693.901978,767.080322 788.031616,767.031494 882.642700,767.056274 
	C882.352478,767.523315 881.580444,768.350952 880.809082,768.350342 
	C807.087524,768.288696 733.366089,768.161560 659.644592,768.044556 
	C631.350647,767.999634 603.056396,768.018921 574.763245,767.851929 
	C571.939880,767.835327 569.122986,766.723572 566.352051,765.859985 
z"/>
<path fill="#6481B5" opacity="1.000000" stroke="none" 
	d="
M451.396912,257.904053 
	C349.363647,258.124725 247.039215,258.095856 144.223541,257.989380 
	C145.659760,257.586884 147.587112,256.978363 149.514664,256.977692 
	C248.078537,256.943329 346.642426,256.956787 445.206329,257.001007 
	C447.172882,257.001892 449.139252,257.427185 451.396912,257.904053 
z"/>
<path fill="#558BC8" opacity="1.000000" stroke="none" 
	d="
M257.132904,753.922852 
	C268.099945,760.356323 279.708252,765.499939 292.812347,766.505981 
	C294.964478,766.671265 297.122192,766.872864 299.277405,766.873901 
	C349.860107,766.898438 400.442810,766.897766 451.486237,766.949585 
	C451.221161,767.535461 450.494141,768.545898 449.769775,768.544067 
	C400.493164,768.417053 351.216797,768.102478 301.940369,768.093994 
	C291.677734,768.092224 281.517578,767.555969 272.050018,763.671387 
	C266.706970,761.479126 262.107025,757.475708 257.132904,753.922852 
z"/>
<path fill="#5882B0" opacity="1.000000" stroke="none" 
	d="
M240.981216,344.942078 
	C240.363724,343.198303 239.765457,341.016327 239.006714,338.248993 
	C241.328308,338.121338 243.089722,337.940002 244.851181,337.939819 
	C308.347321,337.933685 371.843506,337.926483 435.339478,338.040283 
	C437.219269,338.043640 439.096802,339.343262 440.932281,340.451691 
	C435.458862,340.271118 430.029541,339.172150 424.598053,339.161255 
	C365.836304,339.043182 307.074188,339.101593 248.312195,339.089813 
	C244.473007,339.089050 240.620728,338.890228 240.981216,344.942078 
z"/>
<path fill="#D6EEF9" opacity="1.000000" stroke="none" 
	d="
M513.351624,721.296875 
	C515.778442,723.974121 519.104004,726.649292 520.616760,730.115479 
	C523.716431,737.218018 528.641174,741.929626 535.461914,745.232178 
	C537.328369,746.135864 538.335266,748.696533 540.147827,749.851196 
	C546.216553,753.716980 552.477966,757.279419 558.644653,760.992981 
	C559.265625,761.367004 559.743774,761.978271 559.791992,762.754272 
	C558.220581,762.913818 557.145447,762.798462 556.070374,762.683105 
	C556.070374,762.683044 556.092102,762.790588 555.989258,762.502625 
	C554.913879,761.849121 553.941345,761.483521 552.968811,761.117981 
	C537.135315,753.553223 524.557922,742.449524 515.988342,727.016296 
	C515.028625,725.287842 514.277588,723.443420 513.351624,721.296875 
z"/>
<path fill="#E1F3F8" opacity="1.000000" stroke="none" 
	d="
M225.192719,705.384338 
	C230.535812,706.659485 229.364029,711.841919 230.965546,715.572144 
	C232.462097,719.057861 234.328125,722.386353 236.078247,725.759827 
	C236.293106,726.173950 237.108368,726.427856 237.120102,726.773804 
	C237.357925,733.786926 243.252792,736.663879 247.365021,740.813293 
	C249.035172,742.498474 251.165314,743.762939 252.672760,745.564758 
	C254.354095,747.574402 255.565430,749.977295 256.992004,752.596680 
	C251.076782,747.577271 244.440109,742.755127 239.393890,736.624084 
	C232.083878,727.742493 227.164276,717.351807 225.192719,705.384338 
z"/>
<path fill="#5882B0" opacity="1.000000" stroke="none" 
	d="
M587.662964,333.321167 
	C588.279053,337.145233 590.694458,338.021606 594.591919,338.008850 
	C635.251038,337.876038 675.911438,338.039764 716.569519,337.795776 
	C722.054260,337.762878 724.956055,338.991211 725.121216,344.781342 
	C725.191711,347.255066 725.834167,349.712463 726.179688,352.618439 
	C725.418030,351.209412 724.294922,349.412415 724.039490,347.499542 
	C723.059021,340.157104 722.021851,339.093475 714.632141,339.091736 
	C676.075623,339.082825 637.519165,339.081116 598.962646,339.097015 
	C597.141174,339.097748 595.311951,339.216278 593.499878,339.407837 
	C588.798828,339.904846 587.522766,338.702667 587.662964,333.321167 
z"/>
<path fill="#6481B5" opacity="1.000000" stroke="none" 
	d="
M736.428528,257.958679 
	C685.921875,258.174103 635.138855,258.115906 584.355835,258.066193 
	C581.359619,258.063263 578.363281,258.128387 574.954163,258.148193 
	C576.071594,257.736053 577.601746,256.990326 579.132202,256.989532 
	C629.845154,256.962708 680.558167,257.001160 731.271057,257.068085 
	C732.898376,257.070251 734.525146,257.471649 736.428528,257.958679 
z"/>
<path fill="#5882B0" opacity="1.000000" stroke="none" 
	d="
M560.621277,551.699951 
	C534.612183,551.981567 508.285645,552.000977 481.496277,551.959290 
	C482.448730,551.566162 483.863312,550.948120 485.279266,550.944946 
	C509.317505,550.891113 533.355896,550.907593 557.394226,550.941162 
	C558.364319,550.942566 559.333923,551.264954 560.621277,551.699951 
z"/>
<path fill="#558BC8" opacity="1.000000" stroke="none" 
	d="
M452.343567,766.775513 
	C451.057587,759.889587 450.021240,752.864197 449.019714,745.409607 
	C450.351868,748.923889 451.739899,752.840576 452.914124,756.820312 
	C453.677856,759.408752 454.130402,762.088989 454.799774,765.073303 
	C454.459717,765.314087 453.526459,765.975098 452.343567,766.775513 
z"/>
<path fill="#5289C5" opacity="1.000000" stroke="none" 
	d="
M556.269043,762.976746 
	C557.145447,762.798462 558.220581,762.913818 559.706055,763.008911 
	C560.878357,763.290649 561.640198,763.592773 562.714966,763.877319 
	C563.096558,764.026123 563.165283,764.192627 563.340698,764.610718 
	C561.120911,764.331726 558.794250,763.801025 556.269043,762.976746 
z"/>
<path fill="#5289C5" opacity="1.000000" stroke="none" 
	d="
M553.110901,761.417603 
	C553.941345,761.483521 554.913879,761.849121 556.042419,762.489136 
	C555.216614,762.414795 554.234802,762.065979 553.110901,761.417603 
z"/>
</svg>