<?xml version="1.0" standalone="no"?><!DOCTYPE svg PUBLIC "-//W3C//DTD SVG 1.1//EN" "http://www.w3.org/Graphics/SVG/1.1/DTD/svg11.dtd"><svg t="1731058675145" class="icon" viewBox="0 0 1024 1024" version="1.1" xmlns="http://www.w3.org/2000/svg" p-id="1692" xmlns:xlink="http://www.w3.org/1999/xlink" width="200" height="200"><path d="M 385.474 961.6 c -22.9098 -13.0646 -29.7168 -32.9044 -28.5625 -58.6774 c 1.67515 -37.3241 0.428765 -74.7801 0.428765 -114.698 c -16.1897 0 -31.1791 0.363274 -46.145 -0.079818 c -27.8032 -0.824785 -45.1298 -17.7994 -45.1739 -45.3693 c -0.220011 -135.334 -0.089028 -270.673 -0.051165 -406.012 c 0.00307 -2.26662 0.419556 -4.53325 0.769526 -8.07389 c 162.914 0 325.421 0 490.088 0 c 0.267083 6.08458 0.768503 12.2428 0.768503 18.397 c 0.049119 129.476 0.068562 258.957 0.021489 388.432 c -0.01842 38.1304 -14.8359 52.6471 -53.4575 52.7197 c -10.4981 0.020466 -20.9962 0.00307 -33.8397 0.00307 c 0 23.1267 0 45.1872 0 67.2455 c 0 15.8213 -1.18806 31.7491 0.26913 47.4343 c 2.39556 25.7668 -5.49208 45.619 -28.4019 58.6805 c -17.5835 0 -35.1659 0 -52.7494 0 c -7.79862 -7.4906 -17.4658 -13.8648 -22.8167 -22.8208 c -4.41966 -7.39441 -4.99066 -17.8239 -5.10016 -26.9344 c -0.496304 -40.7399 -0.214894 -81.4838 -0.214894 -122.206 c -32.7601 0 -63.3283 0 -94.9495 0 c 0 38.7342 -1.25355 76.1422 0.428765 113.414 c 1.1635 25.7566 -5.74177 45.5003 -28.5625 58.5474 C 420.641 961.6 403.056 961.6 385.474 961.6 Z" fill="#87c162" p-id="1693"></path><path d="M 673.836 64.8612 c -1.35997 6.37724 -1.20545 13.655 -4.35519 18.9741 c -11.5736 19.537 -24.2411 38.4251 -37.3711 58.9199 c 61.3789 35.5548 104.032 84.9344 124.941 153.592 c -164.528 0 -327.108 0 -492.159 0 c 21.2336 -69.9102 65.0608 -119.524 127.076 -154.859 c -12.6204 -19.8184 -24.9114 -38.2983 -36.2035 -57.3686 c -3.28686 -5.55246 -3.71563 -12.7924 -5.45729 -19.2586 c 3.5171 0 7.03318 0 10.5493 0 c 14.7714 23.5207 29.5449 47.0383 44.3562 70.6245 c 72.2454 -29.8918 142.633 -29.2113 214.308 1.12564 c 14.8052 -24.2728 29.287 -48.0094 43.7658 -71.7501 C 666.803 64.8612 670.32 64.8612 673.836 64.8612 Z M 405.162 248.783 c 14.1973 -0.387833 25.6942 -11.986 25.6942 -25.9183 c 0.00307 -14.5228 -12.6859 -26.7216 -27.3397 -26.2816 c -14.9904 0.447185 -26.1373 12.7514 -25.2828 27.8994 C 379.041 238.817 390.533 249.185 405.162 248.783 Z M 639.536 218.706 c -0.275269 -14.4685 -11.3403 -25.5018 -25.7157 -25.64 c -14.6558 -0.144286 -27.136 12.3523 -26.7861 26.8311 c 0.342808 14.0183 11.9225 25.2347 26.1915 25.3688 C 628.698 245.411 639.832 234.17 639.536 218.706 Z" fill="#87c162" p-id="1694"></path><path d="M 121.728 377.84 c 16.685 -30.4577 44.2703 -33.0057 74.0689 -28.0232 c 20.9379 3.50278 34.7945 20.5777 34.8538 42.1725 c 0.212848 82.5235 0.227174 165.044 -0.020466 247.568 c -0.061398 20.2748 -12.3554 35.1455 -32.1134 40.9087 c -32.447 9.46354 -58.5587 -0.168846 -76.7889 -28.3292 C 121.728 560.705 121.728 469.273 121.728 377.84 Z" fill="#87c162" p-id="1695"></path><path d="M 898.901 652.137 c -13.6591 26.9518 -37.1153 33.2564 -64.7487 30.6746 c -28.5001 -2.66162 -44.2109 -19.7641 -44.2385 -48.5221 c -0.075725 -79.5938 -0.089028 -159.192 0.00614 -238.786 c 0.037862 -27.7725 16.1027 -44.5558 43.5806 -47.0414 c 27.484 -2.4897 51.1019 2.8847 65.4015 29.3791 C 898.901 469.273 898.901 560.705 898.901 652.137 Z" fill="#87c162" p-id="1696"></path></svg>