<?xml version="1.0" standalone="no"?><!DOCTYPE svg PUBLIC "-//W3C//DTD SVG 1.1//EN" "http://www.w3.org/Graphics/SVG/1.1/DTD/svg11.dtd"><svg t="1730364752798" class="icon" viewBox="0 0 1024 1024" version="1.1" xmlns="http://www.w3.org/2000/svg" p-id="15295" xmlns:xlink="http://www.w3.org/1999/xlink" width="200" height="200"><path d="M763.5456 107.5712H410.0096c-81.2544 0-147.5072 65.536-148.6336 146.5856-79.1552 3.2256-142.5408 68.608-142.5408 148.5312v359.5776c0 81.9712 66.7136 148.6848 148.6848 148.6848h353.536c81.2544 0 147.5072-65.536 148.6336-146.5856 79.1552-3.2256 142.5408-68.608 142.5408-148.5312V256.256c0-81.9712-66.6624-148.6848-148.6848-148.6848z m-55.1936 654.6944c0 48.128-39.168 87.2448-87.2448 87.2448H267.52c-48.128 0-87.2448-39.168-87.2448-87.2448V402.6368c0-48.128 39.168-87.2448 87.2448-87.2448h353.536c48.128 0 87.2448 39.168 87.2448 87.2448v359.6288z m142.4384-146.432c0 46.0288-35.84 83.712-81.0496 86.9376V402.6368c0-81.9712-66.7136-148.6848-148.6848-148.6848H322.8672c1.2288-47.0528 39.7824-84.9408 87.1424-84.9408h353.5872c48.128 0 87.2448 39.168 87.2448 87.2448v359.5776z" fill="#3A76F2" p-id="15296"></path></svg>