<?xml version="1.0" standalone="no"?><!DOCTYPE svg PUBLIC "-//W3C//DTD SVG 1.1//EN" "http://www.w3.org/Graphics/SVG/1.1/DTD/svg11.dtd"><svg t="1730863880845" class="icon" viewBox="0 0 1024 1024" version="1.1" xmlns="http://www.w3.org/2000/svg" p-id="32990" xmlns:xlink="http://www.w3.org/1999/xlink" width="200" height="200"><path d="M335.17 310.32c19.65-0.07 34.89-15.73 35.17-36.35 0.16-11.36 0-22.71 0-34.07h0.06v-0.55c0-11.42 0.09-22.84 0-34.26-0.1-9.43-2.83-18-9.42-25-10.38-11-24.63-14.22-38.59-8.91-13.63 5.19-22.34 17.38-22.51 32.61-0.13 11.85-0.17 23.7-0.17 35.56q0 17 0.06 34c0 20.72 15.7 37 35.4 36.91z m0 0M691.41 311c19.64-0.06 34.88-15.73 35.17-36.35 0.16-11.36 0-22.71 0-34.07h0.06v-0.55c0-11.42 0.09-22.84 0-34.26-0.1-9.43-2.83-18-9.42-25-10.37-11-24.63-14.22-38.59-8.91-13.63 5.14-22.34 17.37-22.51 32.6q-0.2 17.77-0.17 35.56 0 17 0.06 34c0 20.72 15.7 37 35.4 36.91z m0 0M537.6 572.43h93.54v69.68H537.6zM679.97 477.45h93.39v69.77h-93.39zM680.01 572.17h93.29v69.94h-93.29zM395.27 667.46h93.39v69.79h-93.39zM537.68 667.32h93.4v69.66h-93.4zM680.06 667.4h93.46v69.61h-93.46zM252.65 667.52h93.55v69.66h-93.55zM252.86 572.52h93.38v69.79h-93.38zM537.47 477.63h93.55v69.66h-93.55zM395.07 572.58h93.53v69.66h-93.53zM395.29 477.59h93.41v69.74h-93.41z" fill="#3A76F2" p-id="32991"></path><path d="M854.84 239.36H767q0 6.28-0.12 12.55c-0.59 42.67-30.87 75.5-70.73 78.22a48.19 48.19 0 0 1-5.54 0.34 46.59 46.59 0 0 1-6.81-0.48c-39-3.59-69.05-37.19-69.13-79.3v-11.34h-205.1q0 6.28-0.12 12.55c-0.62 44.48-33.5 78.27-75.86 78.41s-76.27-34.94-76.36-79.62v-11.34h-88.07a13.86 13.86 0 0 0-13.87 13.86v588.23a13.87 13.87 0 0 0 13.87 13.87h685.68a13.87 13.87 0 0 0 13.87-13.87V253.22a13.86 13.86 0 0 0-13.87-13.86zM827 809.13H200v-384h626.4v342.43h0.6z m0 0" fill="#3A76F2" p-id="32992"></path></svg>