<?xml version="1.0" standalone="no"?><!DOCTYPE svg PUBLIC "-//W3C//DTD SVG 1.1//EN" "http://www.w3.org/Graphics/SVG/1.1/DTD/svg11.dtd"><svg t="1730121980668" class="icon" viewBox="0 0 1024 1024" version="1.1" xmlns="http://www.w3.org/2000/svg" p-id="14352" xmlns:xlink="http://www.w3.org/1999/xlink" width="200" height="200"><path d="M820.332902 347.026668C806.790468 190.314487 675.157475 66.861804 515.032568 66.861804c-160.124907 0-291.702642 123.452683-305.190841 280.110629l-5.741771 0c-44.311205 0-80.387865 36.07666-80.387865 80.387865l0 449.390034c0 44.311205 36.07666 80.387865 80.387865 80.387865l615.800088 0c44.310182 0 80.387865-36.07666 80.387865-80.387865L900.287909 427.360298C900.286885 383.158586 864.427166 347.243609 820.332902 347.026668zM515.032568 125.365242c127.731126 0 232.06231 97.343025 245.497297 221.608214L269.644765 346.973456C283.078729 222.708268 387.301442 125.365242 515.032568 125.365242zM844.816526 876.750331c0 13.488199-11.374048 24.918529-24.917506 24.918529L204.099956 901.668861c-13.541411 0-24.918529-11.43033-24.918529-24.918529L179.181427 427.360298c0-13.759375 11.159154-24.918529 24.918529-24.918529l32.285311 0c0.433882 0 0.86674 0.271176 1.300622 0.271176 0.488117 0 0.86674-0.271176 1.353834-0.271176L791.080671 402.441768c0.433882 0 0.867764 0.271176 1.299599 0.271176 0.488117 0 0.867764-0.271176 1.354857-0.271176l26.163893 0c13.758352 0 24.917506 11.158131 24.917506 24.918529L844.816526 876.750331z" fill="#231815" p-id="14353"></path><path d="M514.057357 556.283576c-30.605042 0-55.469336 24.863271-55.469336 55.469336 0 23.99653 15.492856 43.98477 36.890188 51.732222-0.271176 1.246387-0.75827 2.38328-0.75827 3.683902l0 55.469336c0 10.67206 8.613168 19.338441 19.337417 19.338441 10.618848 0 19.285229-8.667404 19.285229-19.338441l0-55.469336c0-1.300622-0.488117-2.437515-0.757247-3.683902 21.395286-7.746428 36.9434-27.735691 36.9434-51.732222C569.527716 581.146846 544.61021 556.283576 514.057357 556.283576z" fill="#231815" p-id="14354"></path></svg>